<svg width="507" height="429" viewBox="0 0 507 429" fill="none" xmlns="http://www.w3.org/2000/svg">
<g filter="url(#filter0_d_866_1177)">
<path d="M64.2304 347.669L36.0618 339.062C35.4942 338.889 35.2067 338.25 35.4384 337.704C78.3162 236.545 102.663 177.218 142.586 116.894C149.182 103.527 203.545 95.1364 268.413 81.1265C269.452 80.9022 270.061 82.266 269.227 82.9254C169.242 162.045 128.853 225.963 65.4139 347.167C65.1907 347.593 64.6906 347.81 64.2304 347.669Z" fill="#94C256"/>
<path d="M108.148 352.135C99.0586 354.108 94.4656 353.549 88.3197 349.298C87.8815 348.994 87.777 348.386 88.0684 347.94C186.858 196.682 272.672 127.757 449.507 42.2045C450.346 41.7985 451.264 42.6465 450.883 43.4976L392.103 174.938C392.006 175.155 391.829 175.333 391.614 175.435C288.08 224.662 233.781 246.465 108.584 351.92C108.461 352.024 108.306 352.101 108.148 352.135Z" fill="#94C256"/>
<path d="M356.407 243.599C258.35 278.252 207.945 303.366 130.305 357.432C129.589 357.93 129.801 359.057 130.654 359.242C205.855 375.558 269.223 388.766 292.706 370.43C318.01 346.986 332.471 303.341 357.678 244.943C358.024 244.141 357.23 243.308 356.407 243.599Z" fill="#94C256"/>
</g>
<defs>
<filter id="filter0_d_866_1177" x="0.0583992" y="0.800098" width="506.213" height="427.812" filterUnits="userSpaceOnUse" color-interpolation-filters="sRGB">
<feFlood flood-opacity="0" result="BackgroundImageFix"/>
<feColorMatrix in="SourceAlpha" type="matrix" values="0 0 0 0 0 0 0 0 0 0 0 0 0 0 0 0 0 0 127 0" result="hardAlpha"/>
<feOffset dx="10" dy="4"/>
<feGaussianBlur stdDeviation="22.65"/>
<feComposite in2="hardAlpha" operator="out"/>
<feColorMatrix type="matrix" values="0 0 0 0 0.580392 0 0 0 0 0.760784 0 0 0 0 0.337255 0 0 0 0.5 0"/>
<feBlend mode="normal" in2="BackgroundImageFix" result="effect1_dropShadow_866_1177"/>
<feBlend mode="normal" in="SourceGraphic" in2="effect1_dropShadow_866_1177" result="shape"/>
</filter>
</defs>
</svg>
